<svg width="767" height="736" viewBox="0 0 767 736" fill="none" xmlns="http://www.w3.org/2000/svg">
<g clip-path="url(#clip0)">
<path d="M190.403 729.611C183.288 725.947 177.054 722.581 176.55 722.133C176.047 721.684 222.405 656.036 279.568 576.249L383.502 431.181L486.824 574.96C543.651 654.039 590.146 719.596 590.146 720.644C590.146 721.691 584.879 725.107 578.442 728.234L566.737 733.92L556.701 727.279C540.37 716.472 525.083 713.231 490.448 713.231C468.986 713.231 455.317 711.987 447.857 709.355C435.011 704.823 408.975 686.68 396.235 673.382C391.331 668.263 386.227 664.075 384.893 664.075C383.559 664.075 374.016 672.102 363.688 681.912C353.359 691.723 339.834 702.718 333.633 706.346C319.233 714.769 294.93 718.606 261.123 717.792C237.89 717.233 233.009 717.88 223.865 722.762C218.078 725.85 211.823 730.207 209.965 732.445C205.714 737.568 205.905 737.595 190.403 729.611V729.611ZM305.553 675.474C324.636 669.807 348.708 645.924 357.459 623.975C363.046 609.962 363.595 605.054 363.1 573.525C362.195 515.937 366.526 514.194 306.066 596.483C277.183 635.793 253.315 669.12 253.026 670.543C252.293 674.143 268.494 679.277 281.137 679.452C286.926 679.53 297.914 677.742 305.553 675.474ZM503.662 676.693C510.009 675.095 515.793 672.83 516.516 671.66C517.835 669.526 410.764 528.891 406.776 527.52C403.343 526.34 401.276 590.714 404.234 606.713C413.809 658.503 456.518 688.563 503.662 676.693V676.693ZM122.727 678.978C112.205 668.029 112.16 667.897 115.898 659.063C121.441 645.966 118.927 625.391 108.03 594.673C93.7433 554.402 95.6279 532.406 116.991 490.089C121.266 481.62 124.398 474.366 123.949 473.97C123.5 473.573 117.311 470.323 110.196 466.746C90.7001 456.947 65.958 437.798 57.2381 425.762C52.7485 419.565 45.5623 402.517 40.2026 385.349C31.3758 357.076 30.1804 354.895 15.2145 339.761C0.763174 325.147 -0.454226 323.032 0.105029 313.517C0.439468 307.826 1.47882 301.833 2.41427 300.2C3.59086 298.145 56.2943 313.114 173.432 348.771C266.556 377.118 342.932 400.574 343.156 400.896C343.929 402.005 137.46 688.621 135.391 689.31C134.251 689.69 128.552 685.041 122.727 678.978V678.978ZM209.501 530.942C236.753 491.869 259.693 458.224 260.48 456.174C262.31 451.405 209.671 464.789 190.317 474.013C156.357 490.199 133.346 529.964 138.408 563.716C140.099 574.993 153.753 601.984 157.766 601.984C158.969 601.984 182.25 570.015 209.501 530.942ZM203.34 427.885C243.555 412.173 247.453 410.235 243.318 408.013C237.589 404.935 78.288 351.031 74.9203 351.031C69.1619 351.031 73.9932 382.918 81.9733 397.579C103.678 437.454 149.538 448.906 203.34 427.885V427.885ZM527.016 546.187C470.38 467.118 424.707 401.761 425.52 400.948C427.277 399.192 752.106 299.816 759.616 298.738C764.038 298.103 765.014 299.877 766.325 310.93C767.82 323.536 767.596 324.094 757.512 332.822C742.913 345.458 733.516 361.495 725.706 387.104C721.993 399.28 716.85 413.317 714.278 418.297C706.307 433.732 682.131 453.708 654.829 467.416C648.426 470.632 642.817 473.586 642.366 473.981C641.914 474.376 644.68 480.886 648.512 488.447C671.877 534.553 673.399 552.952 657.611 598.485C646.269 631.198 645.014 642.083 650.722 658.259L654.377 668.617L643.509 679.282C637.532 685.147 632.045 689.947 631.315 689.947C630.586 689.947 583.651 625.255 527.016 546.187V546.187ZM617.006 592.282C626.189 577.992 629.672 564.475 628.466 547.807C626.358 518.66 604.417 487.588 576.535 474.263C557.756 465.288 503.913 451.155 505.64 455.654C508.102 462.071 606.66 601.984 608.717 601.984C609.847 601.984 613.577 597.618 617.006 592.282V592.282ZM650.355 430.108C675.106 418.399 690.793 395.31 693.044 367.277C693.895 356.68 693.388 351.031 691.588 351.031C688.171 351.031 522.606 407.355 520.844 409.117C520.143 409.817 522.352 411.46 525.751 412.767C529.15 414.074 542.075 419.355 554.472 424.502C584.924 437.144 593.312 438.96 616.249 437.879C630.709 437.197 639.697 435.149 650.355 430.108V430.108ZM409.033 179.945V1.39451L423.91 3.16911C432.092 4.14517 439.464 5.68417 440.291 6.5892C441.119 7.49417 443.156 13.025 444.818 18.8798C449.135 34.0851 455.529 41.0527 481.456 58.8095C521.071 85.94 530.412 100.096 539.76 147.163L544.191 169.472L578.331 168.041C621.297 166.239 630.645 169.013 663.127 193.204C687.881 211.639 705.038 219.061 723.044 219.124C733.142 219.159 734.13 219.863 740.624 231.641L747.504 244.121L735.449 248.125C728.819 250.328 652.662 276.062 566.213 305.312L409.033 358.495V179.945ZM575.916 267.755C618.607 254.9 654.471 243.519 655.613 242.464C659.429 238.94 640.775 218.422 626.369 210.296C613.508 203.043 610.022 202.277 590.146 202.334C564.338 202.408 551.082 207.666 530.859 225.846C520.128 235.494 484.065 287.059 484.065 292.755C484.065 295.336 486.73 294.61 575.916 267.755ZM467.248 242.349C492.689 210.918 500.043 195.676 501.619 171.108C503.05 148.826 497.924 128.983 486.758 113.569C478.257 101.835 455.398 87.2054 445.504 87.1668L439.286 87.1424L440.977 118.594C441.907 135.893 442.668 176.64 442.668 209.144C442.668 241.648 443.541 268.17 444.608 268.081C445.676 267.993 455.863 256.413 467.248 242.348V242.349ZM191.697 300.945C102.757 270.738 28.0015 245.257 25.5731 244.321C21.5578 242.774 21.73 241.596 27.4746 231.319C33.6565 220.259 34.1798 219.958 51.9901 217.201C73.2892 213.905 84.726 208.417 107.352 190.637C132.075 171.209 144.474 166.559 172.292 166.282C185.099 166.155 201.981 166.896 209.808 167.93L224.038 169.811L228.507 146.841C234.233 117.412 242.033 96.6906 251.399 86.0243C255.482 81.3737 269.913 69.7085 283.466 60.1016C312.323 39.6484 320.149 31.132 324.28 15.6878C326.16 8.65921 328.827 4.29541 331.302 4.19977C333.498 4.1147 340.824 3.13529 347.584 2.02277L359.873 0V178.103C359.873 318.95 359.197 356.17 356.639 356.036C354.86 355.943 280.636 331.152 191.697 300.945V300.945ZM284.841 292.38C284.841 286.951 249.202 236.031 238.199 225.74C201.938 191.824 154.235 191.28 123.226 224.428C116.771 231.329 111.489 238.14 111.489 239.564C111.489 240.987 119.348 244.508 128.954 247.387C138.559 250.266 176.69 261.865 213.689 273.162C286.313 295.336 284.841 294.939 284.841 292.38ZM326.238 174.931V84.2067L320.416 86.0066C297.606 93.0591 279.737 109.508 271.744 130.811C263.967 151.54 265.36 183.595 274.906 203.564C281.607 217.581 319.61 265.655 323.99 265.655C325.227 265.655 326.238 224.829 326.238 174.931V174.931Z" fill="#3A3A3A"/>
</g>
<defs>
<clipPath id="clip0">
<rect width="767" height="736" fill="white"/>
</clipPath>
</defs>
</svg>
